# xmcd
#
# Track frame offsets:
# 150
# 16103
# 39190
# 56156
# 67245
# 79334
# 106520
# 121220
# 137757
# 159656
# 172418
# 182875
# 199535
# 210274
# 228121
# 239232
# 257430
# 281938
#
# Disc length: 4071 seconds
#
# Revision: 1
# Processed by: cddbd v1.4PL0 Copyright (c) Steve Scherf et al.
# Submitted via: Axialis_AX_CDPlayer 2.6
#
DISCID=000fe512
DTITLE=Gaither Gospel Series - What A Time!
DYEAR=2001
DGENRE=Gospel
TTITLE0=Oh, What A Time!
TTITLE1=You Sure Do Need Him Now
TTITLE2=In Time, On Time, Every Time
TTITLE3=Scatter Sunshine
TTITLE4=You Can Have A Song In Your Heart
TTITLE5=Rise Again
TTITLE6=No Tears In Heaven
TTITLE7=Please Forgive Me
TTITLE8=Great Is Thy Faithfulness/How Big Is God/How Great Thou Art
TTITLE9=Climbing Jacob's Ladder
TTITLE10=The Heavenly Parade
TTITLE11=This Flight That Is Leavin' Soon
TTITLE12=Singing For The Bus
TTITLE13=I Wouldn't Take Nothin' For My Journey Now
TTITLE14=I've Got Me A Home
TTITLE15=I'm Going Higher Someday
TTITLE16=God Will Make A Way
TTITLE17=Here We Are
EXTD=
EXTT0=
EXTT1=
EXTT2=
EXTT3=
EXTT4=
EXTT5=
EXTT6=
EXTT7=
EXTT8=
EXTT9=
EXTT10=
EXTT11=
EXTT12=
EXTT13=
EXTT14=
EXTT15=
EXTT16=
EXTT17=
PLAYORDER=
